<mxfile host="app.diagrams.net" modified="2024-05-25T23:44:53.156Z" agent="Mozilla/5.0 (Windows NT 10.0; Win64; x64; rv:126.0) Gecko/20100101 Firefox/126.0" etag="fULHOw26SH9up5fsQDzr" version="24.4.8" type="device">
  <diagram name="Page-1" id="pnvu6CDaHpk_YT67eaI9">
    <mxGraphModel dx="919" dy="1845" grid="1" gridSize="10" guides="1" tooltips="1" connect="1" arrows="1" fold="1" page="1" pageScale="1" pageWidth="850" pageHeight="1100" math="0" shadow="0">
      <root>
        <mxCell id="0" />
        <mxCell id="1" parent="0" />
        <mxCell id="8W5O0KjvZfrwKbCvHRpx-1" value="HOME" style="ellipse;shape=doubleEllipse;whiteSpace=wrap;html=1;aspect=fixed;fillColor=none;" parent="1" vertex="1">
          <mxGeometry x="30" y="80" width="80" height="80" as="geometry" />
        </mxCell>
        <mxCell id="8W5O0KjvZfrwKbCvHRpx-4" value="&lt;div&gt;setTargetPos(x&lt;sub&gt;f&lt;/sub&gt;,y&lt;sub&gt;f&lt;/sub&gt;)&lt;br&gt;&lt;/div&gt;" style="text;html=1;align=center;verticalAlign=middle;resizable=0;points=[];autosize=1;strokeColor=none;fillColor=none;" parent="1" vertex="1">
          <mxGeometry x="110" y="85" width="120" height="30" as="geometry" />
        </mxCell>
        <mxCell id="8W5O0KjvZfrwKbCvHRpx-5" value="MOVE TO FEEDER" style="ellipse;whiteSpace=wrap;html=1;aspect=fixed;fillColor=none;" parent="1" vertex="1">
          <mxGeometry x="240" y="80" width="80" height="80" as="geometry" />
        </mxCell>
        <mxCell id="8W5O0KjvZfrwKbCvHRpx-7" value="" style="endArrow=classic;html=1;rounded=0;exitX=1;exitY=0.5;exitDx=0;exitDy=0;entryX=0;entryY=0.5;entryDx=0;entryDy=0;" parent="1" source="8W5O0KjvZfrwKbCvHRpx-1" target="8W5O0KjvZfrwKbCvHRpx-5" edge="1">
          <mxGeometry width="50" height="50" relative="1" as="geometry">
            <mxPoint x="390" y="290" as="sourcePoint" />
            <mxPoint x="440" y="240" as="targetPoint" />
          </mxGeometry>
        </mxCell>
        <mxCell id="8W5O0KjvZfrwKbCvHRpx-13" value="" style="curved=1;endArrow=classic;html=1;rounded=0;entryX=0.738;entryY=0.075;entryDx=0;entryDy=0;entryPerimeter=0;exitX=0.338;exitY=0;exitDx=0;exitDy=0;exitPerimeter=0;" parent="1" source="8W5O0KjvZfrwKbCvHRpx-5" target="8W5O0KjvZfrwKbCvHRpx-5" edge="1">
          <mxGeometry width="50" height="50" relative="1" as="geometry">
            <mxPoint x="265" y="77" as="sourcePoint" />
            <mxPoint x="295" y="69" as="targetPoint" />
            <Array as="points">
              <mxPoint x="250" y="53" />
              <mxPoint x="280" y="30" />
              <mxPoint x="320" y="50" />
            </Array>
          </mxGeometry>
        </mxCell>
        <mxCell id="8W5O0KjvZfrwKbCvHRpx-14" value="&lt;div&gt;!RDY / &lt;br&gt;&lt;/div&gt;&lt;div&gt;no change&lt;/div&gt;" style="text;html=1;align=center;verticalAlign=middle;resizable=0;points=[];autosize=1;strokeColor=none;fillColor=none;" parent="1" vertex="1">
          <mxGeometry x="240" width="80" height="40" as="geometry" />
        </mxCell>
        <mxCell id="8W5O0KjvZfrwKbCvHRpx-15" value="LOWER CNTR NOZZLE" style="ellipse;whiteSpace=wrap;html=1;aspect=fixed;fillColor=none;" parent="1" vertex="1">
          <mxGeometry x="440" y="80" width="80" height="80" as="geometry" />
        </mxCell>
        <mxCell id="8W5O0KjvZfrwKbCvHRpx-16" value="" style="endArrow=classic;html=1;rounded=0;exitX=1;exitY=0.5;exitDx=0;exitDy=0;entryX=0;entryY=0.5;entryDx=0;entryDy=0;" parent="1" source="8W5O0KjvZfrwKbCvHRpx-5" target="8W5O0KjvZfrwKbCvHRpx-15" edge="1">
          <mxGeometry width="50" height="50" relative="1" as="geometry">
            <mxPoint x="390" y="290" as="sourcePoint" />
            <mxPoint x="440" y="240" as="targetPoint" />
          </mxGeometry>
        </mxCell>
        <mxCell id="8W5O0KjvZfrwKbCvHRpx-17" value="&lt;div&gt;RDY / &lt;br&gt;&lt;/div&gt;&lt;div&gt;lowerNozzle(CN)&lt;/div&gt;" style="text;html=1;align=center;verticalAlign=middle;resizable=0;points=[];autosize=1;strokeColor=none;fillColor=none;" parent="1" vertex="1">
          <mxGeometry x="320" y="80" width="120" height="40" as="geometry" />
        </mxCell>
        <mxCell id="8W5O0KjvZfrwKbCvHRpx-18" value="" style="curved=1;endArrow=classic;html=1;rounded=0;entryX=0.313;entryY=0.063;entryDx=0;entryDy=0;entryPerimeter=0;exitX=0;exitY=0;exitDx=0;exitDy=0;" parent="1" source="8W5O0KjvZfrwKbCvHRpx-15" target="8W5O0KjvZfrwKbCvHRpx-15" edge="1">
          <mxGeometry width="50" height="50" relative="1" as="geometry">
            <mxPoint x="467" y="80" as="sourcePoint" />
            <mxPoint x="499" y="86" as="targetPoint" />
            <Array as="points">
              <mxPoint x="410" y="70" />
              <mxPoint x="430" y="40" />
              <mxPoint x="460" y="40" />
            </Array>
          </mxGeometry>
        </mxCell>
        <mxCell id="8W5O0KjvZfrwKbCvHRpx-19" value="&lt;div&gt;!RDY /&lt;br&gt;&lt;/div&gt;&lt;div&gt;no change&lt;br&gt;&lt;/div&gt;" style="text;html=1;align=center;verticalAlign=middle;resizable=0;points=[];autosize=1;strokeColor=none;fillColor=none;" parent="1" vertex="1">
          <mxGeometry x="380" width="80" height="40" as="geometry" />
        </mxCell>
        <mxCell id="8W5O0KjvZfrwKbCvHRpx-36" value="&lt;div&gt;Legend&lt;/div&gt;&lt;div&gt;&lt;br&gt;&lt;/div&gt;&lt;div align=&quot;left&quot;&gt;c: key pressed&lt;/div&gt;&lt;div align=&quot;left&quot;&gt;N: Number key representing feeder number&lt;/div&gt;&lt;div align=&quot;left&quot;&gt;NK:No Key or unspecified key&lt;/div&gt;&lt;div align=&quot;left&quot;&gt;p: instruction to initiate part pickup&lt;/div&gt;&lt;div align=&quot;left&quot;&gt;c: instruction to initiate movement to camera&lt;/div&gt;&lt;div align=&quot;left&quot;&gt;r: rotate to correct nozzle misalignment&lt;/div&gt;&lt;div align=&quot;left&quot;&gt;a: correct gantry preplace misalignment&lt;br&gt;&lt;/div&gt;&lt;div align=&quot;left&quot;&gt;RDY: sim ready for next instruction&lt;/div&gt;&lt;div align=&quot;left&quot;&gt;x&lt;sub&gt;f&lt;/sub&gt;,y&lt;sub&gt;f&lt;/sub&gt;: co-ords of specified feeder&lt;/div&gt;&lt;div align=&quot;left&quot;&gt;x&lt;sub&gt;c&lt;/sub&gt;,y&lt;sub&gt;c&lt;/sub&gt;: co-ords of look-up camera&lt;/div&gt;&lt;div align=&quot;left&quot;&gt;x&lt;sub&gt;p&lt;/sub&gt;,y&lt;sub&gt;p&lt;/sub&gt;: co-ords to place part on PCB&lt;br&gt;&lt;/div&gt;&lt;div align=&quot;left&quot;&gt;x&lt;sub&gt;h&lt;/sub&gt;,y&lt;sub&gt;h&lt;/sub&gt;: co-ords of home&lt;br&gt;&lt;/div&gt;&lt;div align=&quot;left&quot;&gt;req_theta: requested theta of nozzle rotation&lt;br&gt;&lt;/div&gt;&lt;div align=&quot;left&quot;&gt;req_pp&lt;sub&gt;e&lt;/sub&gt;: requested correction for preplace error&lt;/div&gt;&lt;div align=&quot;left&quot;&gt;CN: centre nozzle&lt;/div&gt;&lt;div align=&quot;left&quot;&gt;PH_LU: photo look-up&lt;/div&gt;&lt;div align=&quot;left&quot;&gt;PH_LD: photo look-down&lt;/div&gt;&lt;div align=&quot;left&quot;&gt;F: False&lt;/div&gt;&lt;div align=&quot;left&quot;&gt;T: True&lt;/div&gt;&lt;div align=&quot;left&quot;&gt;#partstoplace: number of parts that need to be placed on PCB&lt;br&gt;&lt;/div&gt;&lt;div align=&quot;left&quot;&gt;FIN: finished placement of all parts&lt;br&gt;&lt;/div&gt;" style="rounded=0;whiteSpace=wrap;html=1;fillColor=none;perimeterSpacing=0;spacingRight=4;spacingLeft=8;" parent="1" vertex="1">
          <mxGeometry x="870" y="10" width="160" height="620" as="geometry" />
        </mxCell>
        <mxCell id="8W5O0KjvZfrwKbCvHRpx-40" value="VAC CNTR NOZZLE" style="ellipse;whiteSpace=wrap;html=1;aspect=fixed;fillColor=none;" parent="1" vertex="1">
          <mxGeometry x="440" y="290" width="80" height="80" as="geometry" />
        </mxCell>
        <mxCell id="8W5O0KjvZfrwKbCvHRpx-41" value="" style="endArrow=classic;html=1;rounded=0;exitX=1;exitY=1;exitDx=0;exitDy=0;entryX=1;entryY=0;entryDx=0;entryDy=0;" parent="1" source="8W5O0KjvZfrwKbCvHRpx-15" target="8W5O0KjvZfrwKbCvHRpx-40" edge="1">
          <mxGeometry width="50" height="50" relative="1" as="geometry">
            <mxPoint x="538.2842712474621" y="338.28427124746213" as="sourcePoint" />
            <mxPoint x="460" y="240" as="targetPoint" />
          </mxGeometry>
        </mxCell>
        <mxCell id="8W5O0KjvZfrwKbCvHRpx-42" value="&lt;div&gt;RDY &amp;amp;&amp;amp; &lt;br&gt;&lt;/div&gt;&lt;div&gt;Nozzle==not_holdingpart  /&lt;/div&gt;&lt;div&gt;applyVacuum(CN)&lt;br&gt;&lt;/div&gt;" style="text;html=1;align=center;verticalAlign=middle;resizable=0;points=[];autosize=1;strokeColor=none;fillColor=none;" parent="1" vertex="1">
          <mxGeometry x="290" y="190" width="170" height="60" as="geometry" />
        </mxCell>
        <mxCell id="8W5O0KjvZfrwKbCvHRpx-43" value="RAISE CNTR NOZZLE" style="ellipse;whiteSpace=wrap;html=1;aspect=fixed;fillColor=none;" parent="1" vertex="1">
          <mxGeometry x="440" y="440" width="80" height="80" as="geometry" />
        </mxCell>
        <mxCell id="8W5O0KjvZfrwKbCvHRpx-44" value="" style="endArrow=classic;html=1;rounded=0;exitX=0.5;exitY=1;exitDx=0;exitDy=0;entryX=0.5;entryY=0;entryDx=0;entryDy=0;" parent="1" source="8W5O0KjvZfrwKbCvHRpx-40" target="8W5O0KjvZfrwKbCvHRpx-43" edge="1">
          <mxGeometry width="50" height="50" relative="1" as="geometry">
            <mxPoint x="410" y="320" as="sourcePoint" />
            <mxPoint x="460" y="270" as="targetPoint" />
          </mxGeometry>
        </mxCell>
        <mxCell id="8W5O0KjvZfrwKbCvHRpx-49" value="&lt;div&gt;RDY &amp;amp;&amp;amp; part_placed==F /&lt;/div&gt;&lt;div&gt;NozzleStatus = holdingpart&lt;/div&gt;&lt;div&gt;setTargetPos(x&lt;sub&gt;c&lt;/sub&gt;,y&lt;sub&gt;c&lt;/sub&gt;)&lt;/div&gt;" style="text;html=1;align=center;verticalAlign=middle;resizable=0;points=[];autosize=1;strokeColor=none;fillColor=none;" parent="1" vertex="1">
          <mxGeometry x="280" y="480" width="170" height="60" as="geometry" />
        </mxCell>
        <mxCell id="8W5O0KjvZfrwKbCvHRpx-51" value="&lt;div&gt;RDY /&lt;/div&gt;&lt;div&gt;raiseNozzle(CN)&lt;br&gt;&lt;/div&gt;" style="text;html=1;align=center;verticalAlign=middle;resizable=0;points=[];autosize=1;strokeColor=none;fillColor=none;" parent="1" vertex="1">
          <mxGeometry x="485" y="380" width="110" height="40" as="geometry" />
        </mxCell>
        <mxCell id="8W5O0KjvZfrwKbCvHRpx-53" value="MOVE TO CAMERA" style="ellipse;whiteSpace=wrap;html=1;aspect=fixed;fillColor=none;" parent="1" vertex="1">
          <mxGeometry x="160" y="260" width="80" height="80" as="geometry" />
        </mxCell>
        <mxCell id="8W5O0KjvZfrwKbCvHRpx-56" value="" style="endArrow=classic;html=1;rounded=0;exitX=0.5;exitY=1;exitDx=0;exitDy=0;" parent="1" source="8W5O0KjvZfrwKbCvHRpx-53" target="8W5O0KjvZfrwKbCvHRpx-57" edge="1">
          <mxGeometry width="50" height="50" relative="1" as="geometry">
            <mxPoint x="400" y="80" as="sourcePoint" />
            <mxPoint x="330" y="400" as="targetPoint" />
          </mxGeometry>
        </mxCell>
        <mxCell id="8W5O0KjvZfrwKbCvHRpx-57" value="LOOK UP PHOTO" style="ellipse;whiteSpace=wrap;html=1;aspect=fixed;fillColor=none;" parent="1" vertex="1">
          <mxGeometry x="160" y="410" width="80" height="80" as="geometry" />
        </mxCell>
        <mxCell id="8W5O0KjvZfrwKbCvHRpx-59" value="&lt;div&gt;RDY / &lt;br&gt;&lt;/div&gt;&lt;div&gt;takePhoto(PH_LU)&lt;br&gt;&lt;/div&gt;" style="text;html=1;align=center;verticalAlign=middle;resizable=0;points=[];autosize=1;strokeColor=none;fillColor=none;" parent="1" vertex="1">
          <mxGeometry x="80" y="360" width="130" height="40" as="geometry" />
        </mxCell>
        <mxCell id="8W5O0KjvZfrwKbCvHRpx-60" value="MOVE TO PCB" style="ellipse;whiteSpace=wrap;html=1;aspect=fixed;fillColor=none;" parent="1" vertex="1">
          <mxGeometry x="160" y="560" width="80" height="80" as="geometry" />
        </mxCell>
        <mxCell id="8W5O0KjvZfrwKbCvHRpx-61" value="" style="endArrow=classic;html=1;rounded=0;exitX=0.5;exitY=1;exitDx=0;exitDy=0;entryX=0.5;entryY=0;entryDx=0;entryDy=0;" parent="1" source="8W5O0KjvZfrwKbCvHRpx-57" target="8W5O0KjvZfrwKbCvHRpx-60" edge="1">
          <mxGeometry width="50" height="50" relative="1" as="geometry">
            <mxPoint x="480" y="290" as="sourcePoint" />
            <mxPoint x="530" y="240" as="targetPoint" />
          </mxGeometry>
        </mxCell>
        <mxCell id="8W5O0KjvZfrwKbCvHRpx-62" value="&lt;div&gt;RDY /&lt;/div&gt;&lt;div&gt;setTargetPos(x&lt;sub&gt;p&lt;/sub&gt;,y&lt;sub&gt;p&lt;/sub&gt;) &lt;/div&gt;" style="text;html=1;align=center;verticalAlign=middle;resizable=0;points=[];autosize=1;strokeColor=none;fillColor=none;" parent="1" vertex="1">
          <mxGeometry x="80" y="500" width="130" height="40" as="geometry" />
        </mxCell>
        <mxCell id="8W5O0KjvZfrwKbCvHRpx-63" value="CHECK ERROR" style="ellipse;whiteSpace=wrap;html=1;aspect=fixed;fillColor=none;" parent="1" vertex="1">
          <mxGeometry x="160" y="850" width="80" height="80" as="geometry" />
        </mxCell>
        <mxCell id="8W5O0KjvZfrwKbCvHRpx-64" value="" style="endArrow=classic;html=1;rounded=0;exitX=0.5;exitY=1;exitDx=0;exitDy=0;entryX=0.5;entryY=0;entryDx=0;entryDy=0;" parent="1" source="8W5O0KjvZfrwKbCvHRpx-60" target="mitdI0-03bY78agFMtrg-19" edge="1">
          <mxGeometry width="50" height="50" relative="1" as="geometry">
            <mxPoint x="510" y="440" as="sourcePoint" />
            <mxPoint x="330" y="710" as="targetPoint" />
          </mxGeometry>
        </mxCell>
        <mxCell id="8W5O0KjvZfrwKbCvHRpx-65" value="&lt;div&gt;RDY /&lt;/div&gt;&lt;div&gt;no change&lt;br&gt;&lt;/div&gt;" style="text;html=1;align=center;verticalAlign=middle;resizable=0;points=[];autosize=1;strokeColor=none;fillColor=none;" parent="1" vertex="1">
          <mxGeometry x="110" y="650" width="80" height="40" as="geometry" />
        </mxCell>
        <mxCell id="mitdI0-03bY78agFMtrg-2" value="" style="endArrow=classic;html=1;rounded=0;exitX=0.5;exitY=1;exitDx=0;exitDy=0;entryX=0.5;entryY=0;entryDx=0;entryDy=0;" parent="1" source="8W5O0KjvZfrwKbCvHRpx-63" edge="1" target="mitdI0-03bY78agFMtrg-5">
          <mxGeometry width="50" height="50" relative="1" as="geometry">
            <mxPoint x="310" y="750" as="sourcePoint" />
            <mxPoint x="810" y="660" as="targetPoint" />
            <Array as="points" />
          </mxGeometry>
        </mxCell>
        <mxCell id="mitdI0-03bY78agFMtrg-3" value="&lt;div&gt;RDY/&lt;/div&gt;&lt;div&gt;calculate req_theta&lt;br&gt;&lt;/div&gt;&lt;div&gt;calculate req_pp&lt;sub&gt;e &lt;/sub&gt;x,y&lt;br&gt;&lt;/div&gt;" style="text;html=1;align=center;verticalAlign=middle;resizable=0;points=[];autosize=1;strokeColor=none;fillColor=none;" parent="1" vertex="1">
          <mxGeometry x="60" y="930" width="140" height="60" as="geometry" />
        </mxCell>
        <mxCell id="mitdI0-03bY78agFMtrg-5" value="FIX NOZZLE ERROR" style="ellipse;whiteSpace=wrap;html=1;aspect=fixed;fillColor=none;" parent="1" vertex="1">
          <mxGeometry x="160" y="1000" width="80" height="80" as="geometry" />
        </mxCell>
        <mxCell id="mitdI0-03bY78agFMtrg-17" value="&lt;div&gt;RDY &amp;amp;&amp;amp;&lt;/div&gt;&lt;div&gt;Nozzle==holdingpart&amp;nbsp; /&lt;/div&gt;&lt;div&gt;releaseVacuum(CN)&lt;/div&gt;&lt;div&gt;part_placed = T&lt;/div&gt;" style="text;html=1;align=center;verticalAlign=middle;resizable=0;points=[];autosize=1;strokeColor=none;fillColor=none;" parent="1" vertex="1">
          <mxGeometry x="510" y="180" width="140" height="70" as="geometry" />
        </mxCell>
        <mxCell id="mitdI0-03bY78agFMtrg-18" value="" style="endArrow=classic;html=1;rounded=0;exitX=0;exitY=1;exitDx=0;exitDy=0;entryX=0;entryY=0;entryDx=0;entryDy=0;" parent="1" source="8W5O0KjvZfrwKbCvHRpx-15" target="8W5O0KjvZfrwKbCvHRpx-40" edge="1">
          <mxGeometry width="50" height="50" relative="1" as="geometry">
            <mxPoint x="481.71572875253787" y="338.28427124746213" as="sourcePoint" />
            <mxPoint x="460" y="360" as="targetPoint" />
          </mxGeometry>
        </mxCell>
        <mxCell id="mitdI0-03bY78agFMtrg-19" value="LOOK DOWN PHOTO" style="ellipse;whiteSpace=wrap;html=1;aspect=fixed;fillColor=none;" parent="1" vertex="1">
          <mxGeometry x="160" y="700" width="80" height="80" as="geometry" />
        </mxCell>
        <mxCell id="mitdI0-03bY78agFMtrg-20" value="" style="endArrow=classic;html=1;rounded=0;exitX=0.5;exitY=1;exitDx=0;exitDy=0;entryX=0.5;entryY=0;entryDx=0;entryDy=0;" parent="1" source="mitdI0-03bY78agFMtrg-19" target="8W5O0KjvZfrwKbCvHRpx-63" edge="1">
          <mxGeometry width="50" height="50" relative="1" as="geometry">
            <mxPoint x="630" y="680" as="sourcePoint" />
            <mxPoint x="680" y="630" as="targetPoint" />
          </mxGeometry>
        </mxCell>
        <mxCell id="mitdI0-03bY78agFMtrg-21" value="takePhoto(PH_LD)" style="text;html=1;align=center;verticalAlign=middle;resizable=0;points=[];autosize=1;strokeColor=none;fillColor=none;" parent="1" vertex="1">
          <mxGeometry x="80" y="810" width="130" height="30" as="geometry" />
        </mxCell>
        <mxCell id="mitdI0-03bY78agFMtrg-22" value="&lt;div&gt;RDY &amp;amp;&amp;amp; part_placed==T&amp;nbsp;&lt;/div&gt;&lt;div&gt;&amp;amp;&amp;amp; part_counter !=&amp;nbsp;#partstoplace /&lt;/div&gt;&lt;div&gt;part_counter++&lt;/div&gt;&lt;div&gt;display next part details&lt;br&gt;&lt;/div&gt;" style="text;html=1;align=center;verticalAlign=middle;resizable=0;points=[];autosize=1;strokeColor=none;fillColor=none;" parent="1" vertex="1">
          <mxGeometry x="520" y="475" width="210" height="70" as="geometry" />
        </mxCell>
        <mxCell id="mitdI0-03bY78agFMtrg-24" value="&lt;div&gt;RDY &amp;amp;&amp;amp; part_placed==T &amp;amp;&amp;amp; &lt;br&gt;&lt;/div&gt;&lt;div&gt;if part_counter ==&amp;nbsp;#partstoplace /&lt;/div&gt;&lt;div&gt;part_counter++&lt;/div&gt;&lt;div&gt;setTargetPos(x&lt;sub&gt;h&lt;/sub&gt;,y&lt;sub&gt;h&lt;/sub&gt;)&lt;/div&gt;" style="text;html=1;align=center;verticalAlign=middle;resizable=0;points=[];autosize=1;strokeColor=none;fillColor=none;" parent="1" vertex="1">
          <mxGeometry x="480" y="600" width="200" height="70" as="geometry" />
        </mxCell>
        <mxCell id="mitdI0-03bY78agFMtrg-25" value="MOVE TO HOME" style="ellipse;whiteSpace=wrap;html=1;aspect=fixed;fillColor=none;" parent="1" vertex="1">
          <mxGeometry x="440" y="690" width="80" height="80" as="geometry" />
        </mxCell>
        <mxCell id="aotYK00sGCeAAX_8yXlG-1" value="" style="endArrow=classic;html=1;rounded=0;exitX=0;exitY=0.5;exitDx=0;exitDy=0;entryX=1;entryY=0.5;entryDx=0;entryDy=0;" edge="1" parent="1" source="8W5O0KjvZfrwKbCvHRpx-43" target="8W5O0KjvZfrwKbCvHRpx-53">
          <mxGeometry width="50" height="50" relative="1" as="geometry">
            <mxPoint x="450" y="410" as="sourcePoint" />
            <mxPoint x="500" y="360" as="targetPoint" />
            <Array as="points">
              <mxPoint x="330" y="480" />
              <mxPoint x="330" y="300" />
            </Array>
          </mxGeometry>
        </mxCell>
        <mxCell id="aotYK00sGCeAAX_8yXlG-2" value="FIX PREPLACE ERROR" style="ellipse;whiteSpace=wrap;html=1;aspect=fixed;fillColor=none;" vertex="1" parent="1">
          <mxGeometry x="160" y="1150" width="80" height="80" as="geometry" />
        </mxCell>
        <mxCell id="aotYK00sGCeAAX_8yXlG-3" value="" style="endArrow=classic;html=1;rounded=0;exitX=0.5;exitY=1;exitDx=0;exitDy=0;entryX=0.5;entryY=0;entryDx=0;entryDy=0;" edge="1" parent="1" source="mitdI0-03bY78agFMtrg-5" target="aotYK00sGCeAAX_8yXlG-2">
          <mxGeometry width="50" height="50" relative="1" as="geometry">
            <mxPoint x="420" y="890" as="sourcePoint" />
            <mxPoint x="470" y="840" as="targetPoint" />
          </mxGeometry>
        </mxCell>
        <mxCell id="aotYK00sGCeAAX_8yXlG-4" value="&lt;div&gt;RDY /&lt;/div&gt;&lt;div&gt;rotateNozzle(CN, req_theta)&lt;br&gt;&lt;/div&gt;" style="text;html=1;align=center;verticalAlign=middle;resizable=0;points=[];autosize=1;strokeColor=none;fillColor=none;" vertex="1" parent="1">
          <mxGeometry x="30" y="1090" width="170" height="40" as="geometry" />
        </mxCell>
        <mxCell id="aotYK00sGCeAAX_8yXlG-5" value="&lt;div&gt;RDY /&lt;/div&gt;&lt;div&gt;amendPos(req_pp&lt;sub&gt;e_&lt;/sub&gt;x,&amp;nbsp;req_pp&lt;sub&gt;e&lt;/sub&gt;_y)&lt;/div&gt;" style="text;html=1;align=center;verticalAlign=middle;resizable=0;points=[];autosize=1;strokeColor=none;fillColor=none;" vertex="1" parent="1">
          <mxGeometry x="240" y="1150" width="210" height="40" as="geometry" />
        </mxCell>
        <mxCell id="aotYK00sGCeAAX_8yXlG-6" value="" style="endArrow=classic;html=1;rounded=0;exitX=1;exitY=0.5;exitDx=0;exitDy=0;entryX=1;entryY=0.5;entryDx=0;entryDy=0;" edge="1" parent="1" source="aotYK00sGCeAAX_8yXlG-2" target="8W5O0KjvZfrwKbCvHRpx-15">
          <mxGeometry width="50" height="50" relative="1" as="geometry">
            <mxPoint x="420" y="920" as="sourcePoint" />
            <mxPoint x="470" y="870" as="targetPoint" />
            <Array as="points">
              <mxPoint x="790" y="1190" />
              <mxPoint x="800" y="120" />
            </Array>
          </mxGeometry>
        </mxCell>
        <mxCell id="aotYK00sGCeAAX_8yXlG-8" value="" style="endArrow=classic;html=1;rounded=0;exitX=1;exitY=0.5;exitDx=0;exitDy=0;entryX=0.5;entryY=0;entryDx=0;entryDy=0;" edge="1" parent="1" source="8W5O0KjvZfrwKbCvHRpx-43" target="8W5O0KjvZfrwKbCvHRpx-1">
          <mxGeometry width="50" height="50" relative="1" as="geometry">
            <mxPoint x="420" y="410" as="sourcePoint" />
            <mxPoint x="710" y="40" as="targetPoint" />
            <Array as="points">
              <mxPoint x="680" y="480" />
              <mxPoint x="680" y="-30" />
              <mxPoint x="70" y="-30" />
            </Array>
          </mxGeometry>
        </mxCell>
        <mxCell id="aotYK00sGCeAAX_8yXlG-9" value="" style="endArrow=classic;html=1;rounded=0;exitX=0.5;exitY=1;exitDx=0;exitDy=0;entryX=0.5;entryY=0;entryDx=0;entryDy=0;" edge="1" parent="1" source="8W5O0KjvZfrwKbCvHRpx-43" target="mitdI0-03bY78agFMtrg-25">
          <mxGeometry width="50" height="50" relative="1" as="geometry">
            <mxPoint x="420" y="470" as="sourcePoint" />
            <mxPoint x="470" y="420" as="targetPoint" />
          </mxGeometry>
        </mxCell>
      </root>
    </mxGraphModel>
  </diagram>
</mxfile>
